<svg width="21" height="22" viewBox="0 0 21 22" fill="none" xmlns="http://www.w3.org/2000/svg">
<path d="M20.2813 15.75C20.1969 15.5571 20.0602 15.3918 19.8866 15.2728C18.4297 14.2706 18.125 12.5325 18.125 11.25C18.125 9.73406 19.3138 8.38125 20.0234 7.71C20.1345 7.60487 20.223 7.47819 20.2834 7.33771C20.3439 7.19724 20.3751 7.04591 20.3751 6.89297C20.3751 6.74003 20.3439 6.5887 20.2834 6.44823C20.223 6.30775 20.1345 6.18107 20.0234 6.07594C18.7709 4.89094 16.7009 4.125 14.75 4.125C13.4254 4.12621 12.1272 4.49523 11 5.19094C9.63693 4.34414 8.02682 3.98503 6.4331 4.17237C4.83938 4.3597 3.35643 5.08239 2.22688 6.22219C1.53528 6.92856 0.992797 7.76682 0.631711 8.68709C0.270625 9.60736 0.0983059 10.5908 0.125004 11.5791C0.164096 13.2099 0.527694 14.8166 1.19457 16.3053C1.86144 17.7941 2.81823 19.1351 4.00907 20.25C4.77299 20.9734 5.7854 21.3761 6.8375 21.375H15.0584C15.6215 21.3758 16.1787 21.2609 16.6955 21.0376C17.2124 20.8142 17.6778 20.4871 18.0631 20.0766C18.7338 19.357 19.3132 18.5576 19.7881 17.6962C19.9353 17.4262 20.0694 17.1609 20.1763 16.9078C20.3253 16.5628 20.48 16.2066 20.2813 15.75ZM16.4159 18.5456C16.2414 18.73 16.0308 18.8765 15.7973 18.9762C15.5638 19.0759 15.3123 19.1265 15.0584 19.125H6.8375C6.36005 19.1267 5.90022 18.9447 5.55313 18.6169C4.57846 17.7044 3.79541 16.6069 3.24973 15.3883C2.70405 14.1698 2.40669 12.8548 2.375 11.52C2.35598 10.8354 2.47482 10.1539 2.72445 9.51614C2.97409 8.87837 3.34942 8.2973 3.82813 7.8075C4.27386 7.35221 4.80631 6.99087 5.39404 6.74483C5.98177 6.49879 6.61285 6.37303 7.25 6.375H7.3175C8.40186 6.38676 9.45069 6.76323 10.295 7.44375C10.4945 7.6035 10.7425 7.69055 10.9981 7.69055C11.2537 7.69055 11.5017 7.6035 11.7013 7.44375C12.5643 6.74737 13.6411 6.3699 14.75 6.375C15.7248 6.38653 16.6837 6.624 17.5513 7.06875C16.4619 8.40563 15.875 9.85594 15.875 11.25C15.875 13.4372 16.5753 15.2709 17.8672 16.5178C17.4725 17.2532 16.9844 17.9345 16.415 18.5447L16.4159 18.5456ZM11.0703 1.21875C11.4122 0.778014 11.8403 0.411507 12.3284 0.141563C12.5895 -0.00314568 12.8974 -0.0382169 13.1843 0.0440647C13.4712 0.126346 13.7137 0.319241 13.8584 0.580313C14.0032 0.841386 14.0382 1.14925 13.9559 1.43618C13.8737 1.72311 13.6808 1.9656 13.4197 2.11031C13.1972 2.2332 13.0022 2.40039 12.8469 2.60156C12.7561 2.71821 12.6432 2.81584 12.5147 2.88886C12.3861 2.96189 12.2445 3.00888 12.0978 3.02716C11.8016 3.06409 11.5028 2.98181 11.2672 2.79844C11.0316 2.61507 10.8785 2.34562 10.8416 2.04937C10.8047 1.75312 10.8869 1.45434 11.0703 1.21875Z" fill="#CECECE"/>
</svg>
