<svg width="376" height="326" viewBox="0 0 376 326" fill="none" xmlns="http://www.w3.org/2000/svg">
<path fill-rule="evenodd" clip-rule="evenodd" d="M302.921 46.3928C304.102 46.3928 304.104 44.5648 302.921 44.5648C301.741 44.5648 301.739 46.3928 302.921 46.3928" fill="#F2F8FD"/>
<path fill-rule="evenodd" clip-rule="evenodd" d="M310.87 69.5473C312.051 69.5473 312.053 67.7194 310.87 67.7194C309.69 67.7194 309.688 69.5473 310.87 69.5473" fill="#F2F8FD"/>
<path fill-rule="evenodd" clip-rule="evenodd" d="M322.484 95.7485C323.664 95.7485 323.666 93.9205 322.484 93.9205C321.303 93.9205 321.301 95.7485 322.484 95.7485" fill="#F2F8FD"/>
<path fill-rule="evenodd" clip-rule="evenodd" d="M293.753 81.7339C294.934 81.7339 294.936 79.9059 293.753 79.9059C292.573 79.9059 292.571 81.7339 293.753 81.7339" fill="#F2F8FD"/>
<path fill-rule="evenodd" clip-rule="evenodd" d="M332.265 47.6114C333.445 47.6114 333.447 45.7834 332.265 45.7834C331.084 45.7834 331.083 47.6114 332.265 47.6114" fill="#F2F8FD"/>
<path fill-rule="evenodd" clip-rule="evenodd" d="M330.433 32.9875C331.613 32.9875 331.615 31.1595 330.433 31.1595C329.252 31.1595 329.251 32.9875 330.433 32.9875" fill="#F2F8FD"/>
<path fill-rule="evenodd" clip-rule="evenodd" d="M232.886 44.828C234.067 44.828 234.068 43 232.886 43C231.706 43 231.704 44.828 232.886 44.828" fill="#F2F8FD"/>
<path fill-rule="evenodd" clip-rule="evenodd" d="M257.886 41.828C259.067 41.828 259.068 40 257.886 40C256.706 40 256.704 41.828 257.886 41.828" fill="#F2F8FD"/>
<path fill-rule="evenodd" clip-rule="evenodd" d="M273.886 54.828C275.067 54.828 275.068 53 273.886 53C272.706 53 272.704 54.828 273.886 54.828" fill="#F2F8FD"/>
<path fill-rule="evenodd" clip-rule="evenodd" d="M287.886 18.828C289.067 18.828 289.068 17 287.886 17C286.706 17 286.704 18.828 287.886 18.828" fill="#F2F8FD"/>
<path fill-rule="evenodd" clip-rule="evenodd" d="M315.761 154.244C316.942 154.244 316.943 152.416 315.761 152.416C314.581 152.416 314.579 154.244 315.761 154.244" fill="#F2F8FD"/>
<path fill-rule="evenodd" clip-rule="evenodd" d="M313.316 125.606C314.496 125.606 314.498 123.778 313.316 123.778C312.135 123.778 312.133 125.606 313.316 125.606" fill="#F2F8FD"/>
<path fill-rule="evenodd" clip-rule="evenodd" d="M280.304 146.323C281.485 146.323 281.486 144.495 280.304 144.495C279.124 144.495 279.122 146.323 280.304 146.323" fill="#F2F8FD"/>
<path fill-rule="evenodd" clip-rule="evenodd" d="M292.531 108.544C293.711 108.544 293.713 106.716 292.531 106.716C291.35 106.716 291.348 108.544 292.531 108.544" fill="#F2F8FD"/>
<path fill-rule="evenodd" clip-rule="evenodd" d="M330.433 131.09C331.613 131.09 331.615 129.262 330.433 129.262C329.252 129.262 329.251 131.09 330.433 131.09" fill="#F2F8FD"/>
<path fill-rule="evenodd" clip-rule="evenodd" d="M319.429 213.958C320.61 213.958 320.611 212.13 319.429 212.13C318.249 212.13 318.247 213.958 319.429 213.958" fill="#F2F8FD"/>
<path fill-rule="evenodd" clip-rule="evenodd" d="M272.355 225.536C273.535 225.536 273.537 223.708 272.355 223.708C271.174 223.708 271.172 225.536 272.355 225.536" fill="#F2F8FD"/>
<path fill-rule="evenodd" clip-rule="evenodd" d="M320.652 181.055C321.832 181.055 321.834 179.227 320.652 179.227C319.471 179.227 319.469 181.055 320.652 181.055" fill="#F2F8FD"/>
<path fill-rule="evenodd" clip-rule="evenodd" d="M305.98 198.116C307.16 198.116 307.162 196.288 305.98 196.288C304.799 196.288 304.797 198.116 305.98 198.116" fill="#F2F8FD"/>
<path fill-rule="evenodd" clip-rule="evenodd" d="M307.202 232.848C308.383 232.848 308.385 231.02 307.202 231.02C306.022 231.02 306.02 232.848 307.202 232.848" fill="#F2F8FD"/>
<path fill-rule="evenodd" clip-rule="evenodd" d="M293.753 218.224C294.934 218.224 294.936 216.396 293.753 216.396C292.573 216.396 292.571 218.224 293.753 218.224" fill="#F2F8FD"/>
<path fill-rule="evenodd" clip-rule="evenodd" d="M261.351 218.224C262.531 218.224 262.533 216.396 261.351 216.396C260.17 216.396 260.169 218.224 261.351 218.224" fill="#F2F8FD"/>
<path fill-rule="evenodd" clip-rule="evenodd" d="M288.249 131.699C289.43 131.699 289.432 129.871 288.249 129.871C287.069 129.871 287.067 131.699 288.249 131.699" fill="#F2F8FD"/>
<path fill-rule="evenodd" clip-rule="evenodd" d="M228.886 19.828C230.067 19.828 230.068 18 228.886 18C227.706 18 227.704 19.828 228.886 19.828" fill="#F2F8FD"/>
<path fill-rule="evenodd" clip-rule="evenodd" d="M128.077 39.6902C129.257 39.6902 129.26 37.8622 128.077 37.8622C126.897 37.8622 126.895 39.6902 128.077 39.6902" fill="#F2F8FD"/>
<path fill-rule="evenodd" clip-rule="evenodd" d="M142.14 51.8768C143.32 51.8768 143.322 50.0488 142.14 50.0488C140.96 50.0488 140.957 51.8768 142.14 51.8768" fill="#F2F8FD"/>
<path fill-rule="evenodd" clip-rule="evenodd" d="M161.702 31.1595C162.882 31.1595 162.885 29.3315 161.702 29.3315C160.522 29.3315 160.52 31.1595 161.702 31.1595" fill="#F2F8FD"/>
<path fill-rule="evenodd" clip-rule="evenodd" d="M170.87 43.6509C172.05 43.6509 172.053 41.8229 170.87 41.8229C169.69 41.8229 169.688 43.6509 170.87 43.6509" fill="#F2F8FD"/>
<path fill-rule="evenodd" clip-rule="evenodd" d="M75.503 43.9554C76.6829 43.9554 76.6854 42.1274 75.503 42.1274C74.3231 42.1274 74.3207 43.9554 75.503 43.9554" fill="#F2F8FD"/>
<path fill-rule="evenodd" clip-rule="evenodd" d="M90.1749 64.6727C91.3548 64.6727 91.3572 62.8447 90.1749 62.8447C88.995 62.8447 88.9926 64.6727 90.1749 64.6727" fill="#F2F8FD"/>
<path fill-rule="evenodd" clip-rule="evenodd" d="M101.179 53.7047C102.359 53.7047 102.361 51.8767 101.179 51.8767C99.9989 51.8767 99.9965 53.7047 101.179 53.7047" fill="#F2F8FD"/>
<path fill-rule="evenodd" clip-rule="evenodd" d="M108.886 17.828C110.066 17.828 110.068 16 108.886 16C107.706 16 107.703 17.828 108.886 17.828" fill="#F2F8FD"/>
<path fill-rule="evenodd" clip-rule="evenodd" d="M120.741 61.0167C121.921 61.0167 121.924 59.1887 120.741 59.1887C119.561 59.1887 119.559 61.0167 120.741 61.0167" fill="#F2F8FD"/>
<path fill-rule="evenodd" clip-rule="evenodd" d="M74.2804 102.451C75.4603 102.451 75.4627 100.623 74.2804 100.623C73.1005 100.623 73.098 102.451 74.2804 102.451" fill="#F2F8FD"/>
<path fill-rule="evenodd" clip-rule="evenodd" d="M99.9562 132.308C101.136 132.308 101.138 130.48 99.9562 130.48C98.7763 130.48 98.7738 132.308 99.9562 132.308" fill="#F2F8FD"/>
<path fill-rule="evenodd" clip-rule="evenodd" d="M102.401 95.7485C103.581 95.7485 103.584 93.9205 102.401 93.9205C101.222 93.9205 101.219 95.7485 102.401 95.7485" fill="#F2F8FD"/>
<path fill-rule="evenodd" clip-rule="evenodd" d="M118.296 129.871C119.476 129.871 119.478 128.043 118.296 128.043C117.116 128.043 117.114 129.871 118.296 129.871" fill="#F2F8FD"/>
<path fill-rule="evenodd" clip-rule="evenodd" d="M66.9444 155.463C68.1243 155.463 68.1268 153.635 66.9444 153.635C65.7645 153.635 65.7621 155.463 66.9444 155.463" fill="#F2F8FD"/>
<path fill-rule="evenodd" clip-rule="evenodd" d="M46.1593 195.679C47.3392 195.679 47.3416 193.851 46.1593 193.851C44.9794 193.851 44.9769 195.679 46.1593 195.679" fill="#F2F8FD"/>
<path fill-rule="evenodd" clip-rule="evenodd" d="M69.3897 220.052C70.5696 220.052 70.5721 218.224 69.3897 218.224C68.2098 218.224 68.2074 220.052 69.3897 220.052" fill="#F2F8FD"/>
<path fill-rule="evenodd" clip-rule="evenodd" d="M85.2843 200.553C86.4642 200.553 86.4666 198.725 85.2843 198.725C84.1044 198.725 84.1019 200.553 85.2843 200.553" fill="#F2F8FD"/>
<path fill-rule="evenodd" clip-rule="evenodd" d="M68.7765 192.632C69.9564 192.632 69.9588 190.804 68.7765 190.804C67.5966 190.804 67.5941 192.632 68.7765 192.632" fill="#F2F8FD"/>
<path fill-rule="evenodd" clip-rule="evenodd" d="M51.0499 221.88C52.2298 221.88 52.2322 220.052 51.0499 220.052C49.87 220.052 49.8676 221.88 51.0499 221.88" fill="#F2F8FD"/>
<path fill-rule="evenodd" clip-rule="evenodd" d="M91.3976 231.02C92.5775 231.02 92.5799 229.192 91.3976 229.192C90.2177 229.192 90.2152 231.02 91.3976 231.02" fill="#F2F8FD"/>
<path fill-rule="evenodd" clip-rule="evenodd" d="M99.3429 210.912C100.523 210.912 100.525 209.084 99.3429 209.084C98.163 209.084 98.1605 210.912 99.3429 210.912" fill="#F2F8FD"/>
<path fill-rule="evenodd" clip-rule="evenodd" d="M131.745 228.582C132.925 228.582 132.928 226.754 131.745 226.754C130.565 226.754 130.563 228.582 131.745 228.582" fill="#F2F8FD"/>
<path fill-rule="evenodd" clip-rule="evenodd" d="M46.1593 170.087C47.3392 170.087 47.3416 168.259 46.1593 168.259C44.9794 168.259 44.9769 170.087 46.1593 170.087" fill="#F2F8FD"/>
<path fill-rule="evenodd" clip-rule="evenodd" d="M84.671 146.932C85.8509 146.932 85.8533 145.104 84.671 145.104C83.4911 145.104 83.4887 146.932 84.671 146.932" fill="#F2F8FD"/>
<path fill-rule="evenodd" clip-rule="evenodd" d="M76.7257 126.215C77.9056 126.215 77.908 124.387 76.7257 124.387C75.5458 124.387 75.5433 126.215 76.7257 126.215" fill="#F2F8FD"/>
<path fill-rule="evenodd" clip-rule="evenodd" d="M56.5499 131.699C57.7298 131.699 57.7322 129.871 56.5499 129.871C55.37 129.871 55.3676 131.699 56.5499 131.699" fill="#F2F8FD"/>
<path fill-rule="evenodd" clip-rule="evenodd" d="M53.4952 100.014C54.6751 100.014 54.6776 98.1858 53.4952 98.1858C52.3153 98.1858 52.3129 100.014 53.4952 100.014" fill="#F2F8FD"/>
<path fill-rule="evenodd" clip-rule="evenodd" d="M71.2218 82.9525C72.4017 82.9525 72.4041 81.1245 71.2218 81.1245C70.0419 81.1245 70.0394 82.9525 71.2218 82.9525" fill="#F2F8FD"/>
<path fill-rule="evenodd" clip-rule="evenodd" d="M62.0538 62.8447C63.2337 62.8447 63.2361 61.0167 62.0538 61.0167C60.8739 61.0167 60.8715 62.8447 62.0538 62.8447" fill="#F2F8FD"/>
<path fill-rule="evenodd" clip-rule="evenodd" d="M45.546 78.078C46.7259 78.078 46.7283 76.25 45.546 76.25C44.3661 76.25 44.3637 78.078 45.546 78.078" fill="#F2F8FD"/>
<path fill-rule="evenodd" clip-rule="evenodd" d="M44.3233 38.4715C45.5032 38.4715 45.5057 36.6436 44.3233 36.6436C43.1434 36.6436 43.141 38.4715 44.3233 38.4715" fill="#F2F8FD"/>
<path fill-rule="evenodd" clip-rule="evenodd" d="M73.8858 25.828C75.0657 25.828 75.0682 24 73.8858 24C72.7059 24 72.7035 25.828 73.8858 25.828" fill="#F2F8FD"/>
<path fill-rule="evenodd" clip-rule="evenodd" d="M128.077 29.3315C129.257 29.3315 129.26 27.5035 128.077 27.5035C126.897 27.5035 126.895 29.3315 128.077 29.3315" fill="#F2F8FD"/>
<path fill-rule="evenodd" clip-rule="evenodd" d="M332.878 204.818C334.059 204.818 334.061 202.99 332.878 202.99C331.698 202.99 331.696 204.818 332.878 204.818" fill="#F2F8FD"/>
<path fill-rule="evenodd" clip-rule="evenodd" d="M148.862 124.996C150.042 124.996 150.045 123.168 148.862 123.168C147.683 123.168 147.68 124.996 148.862 124.996" fill="#F2F8FD"/>
<path fill-rule="evenodd" clip-rule="evenodd" d="M123.8 137.792C124.98 137.792 124.982 135.964 123.8 135.964C122.62 135.964 122.618 137.792 123.8 137.792" fill="#F2F8FD"/>
<path fill-rule="evenodd" clip-rule="evenodd" d="M238.73 100.623C239.91 100.623 239.912 98.7952 238.73 98.7952C237.549 98.7952 237.547 100.623 238.73 100.623" fill="#F2F8FD"/>
<path fill-rule="evenodd" clip-rule="evenodd" d="M240.566 116.466C241.746 116.466 241.748 114.638 240.566 114.638C239.385 114.638 239.383 116.466 240.566 116.466" fill="#F2F8FD"/>
<path fill-rule="evenodd" clip-rule="evenodd" d="M260.738 137.183C261.918 137.183 261.92 135.355 260.738 135.355C259.557 135.355 259.555 137.183 260.738 137.183" fill="#F2F8FD"/>
<path fill-rule="evenodd" clip-rule="evenodd" d="M115.169 88.5731L108.965 85.2681L115.414 78.9591L124.952 83.905L115.169 88.5731Z" fill="#F52D56"/>
<path fill-rule="evenodd" clip-rule="evenodd" d="M164.457 120.715L160.069 121.017L159.602 118.375L162.698 116.341L164.457 120.715Z" fill="#23BBB8"/>
<path fill-rule="evenodd" clip-rule="evenodd" d="M102.904 158.747L98.5146 159.047L98.0469 156.407L101.141 154.372L102.904 158.747Z" fill="#23BBB8"/>
<path fill-rule="evenodd" clip-rule="evenodd" d="M167.076 98.8597L162.686 99.1607L162.223 96.5181L165.314 94.4835L167.076 98.8597Z" fill="#23BBB8"/>
<path fill-rule="evenodd" clip-rule="evenodd" d="M78.718 97.7521L74.3267 98.0525L73.8633 95.4116L76.9561 93.3765L78.718 97.7521Z" fill="#23BBB8"/>
<path fill-rule="evenodd" clip-rule="evenodd" d="M213.948 171.646L209.558 171.947L209.094 169.306L212.187 167.27L213.948 171.646Z" fill="#23BBB8"/>
<path fill-rule="evenodd" clip-rule="evenodd" d="M146.38 74.1432L141.989 74.4424L141.523 71.8027L144.62 69.7664L146.38 74.1432Z" fill="#23BBB8"/>
<path fill-rule="evenodd" clip-rule="evenodd" d="M226.845 131.685L222.457 131.986L221.992 129.345L225.084 127.311L226.845 131.685Z" fill="#23BBB8"/>
<path fill-rule="evenodd" clip-rule="evenodd" d="M244.956 90.7652L240.566 91.0656L240.102 88.4254L243.193 86.3903L244.956 90.7652Z" fill="#23BBB8"/>
<path fill-rule="evenodd" clip-rule="evenodd" d="M204.637 188.152L200.247 188.452L199.781 185.812L202.876 183.776L204.637 188.152Z" fill="#23BBB8"/>
<path fill-rule="evenodd" clip-rule="evenodd" d="M189.792 118.534L190.017 121.252L186.725 119.733L186.512 116.107L189.792 118.534Z" fill="#EB008B"/>
<path fill-rule="evenodd" clip-rule="evenodd" d="M69.4349 138.621L66.8789 139.966L66.959 136.56L70.4045 134.834L69.4349 138.621Z" fill="#EB008B"/>
<path fill-rule="evenodd" clip-rule="evenodd" d="M191.95 214.287L189.391 215.636L189.475 212.229L192.919 210.504L191.95 214.287Z" fill="#EB008B"/>
<path fill-rule="evenodd" clip-rule="evenodd" d="M121.434 113.196L118.719 114.247L119.248 110.874L122.892 109.548L121.434 113.196Z" fill="#EB008B"/>
<path fill-rule="evenodd" clip-rule="evenodd" d="M166.139 181.324L169.08 181.288L167.233 184.236L163.316 184.205L166.139 181.324Z" fill="#EB008B"/>
<path fill-rule="evenodd" clip-rule="evenodd" d="M146.278 187.403L141.897 188.836L140.645 184.402L145.938 182.725L146.278 187.403Z" fill="#FFD200"/>
<path fill-rule="evenodd" clip-rule="evenodd" d="M118.048 131.091L118.303 135.392L113.359 135.261L113.105 130.081L118.048 131.091Z" fill="#FFD200"/>
<path fill-rule="evenodd" clip-rule="evenodd" d="M93.0215 72.3803L88.6375 73.8135L87.3867 69.3782L92.6804 67.7001L93.0215 72.3803Z" fill="#FFD200"/>
<path fill-rule="evenodd" clip-rule="evenodd" d="M177.502 69.3128L173.12 70.7441L171.867 66.3094L177.161 64.6338L177.502 69.3128Z" fill="#FFD200"/>
<path fill-rule="evenodd" clip-rule="evenodd" d="M147.057 99.2694L142.676 100.703L141.426 96.2684L146.716 94.5922L147.057 99.2694Z" fill="#FFD200"/>
<path fill-rule="evenodd" clip-rule="evenodd" d="M236.839 159.624L232.458 161.057L231.207 156.624L236.498 154.943L236.839 159.624Z" fill="#FFD200"/>
<path fill-rule="evenodd" clip-rule="evenodd" d="M129.978 163.876L126.66 160.884L132.298 158.055L137.419 162.574L129.978 163.876Z" fill="#1B75BB"/>
<path fill-rule="evenodd" clip-rule="evenodd" d="M94.8253 125.526L91.5039 122.151L97.165 119.271L102.296 124.371L94.8253 125.526Z" fill="#F52D56"/>
<path fill-rule="evenodd" clip-rule="evenodd" d="M71.3945 173.18L71.9136 169.608L76.6582 171.325L75.9295 176.784L71.3945 173.18Z" fill="#F52D56"/>
<path fill-rule="evenodd" clip-rule="evenodd" d="M225.414 69.8642L228.338 67.4927L230.695 71.6794L226.27 75.3457L225.414 69.8642Z" fill="#F52D56"/>
<path fill-rule="evenodd" clip-rule="evenodd" d="M254.301 69.8642L257.223 67.4927L259.581 71.6794L255.157 75.3457L254.301 69.8642Z" fill="#1B75BB"/>
<path fill-rule="evenodd" clip-rule="evenodd" d="M167.964 164.944L162.484 167.241L162.651 160.38L169.911 157.327L167.964 164.944Z" fill="#EB008B"/>
<path fill-rule="evenodd" clip-rule="evenodd" d="M275.009 121.931L269.527 124.228L269.695 117.367L276.954 114.315L275.009 121.931Z" fill="#F52D56"/>
<path fill-rule="evenodd" clip-rule="evenodd" d="M243.662 111.644L243.453 116.734L237.469 113.814L237.733 107.062L243.662 111.644Z" fill="#F52D56"/>
<path fill-rule="evenodd" clip-rule="evenodd" d="M123.333 183.231L114.515 186.113L111.996 177.188L122.648 173.812L123.333 183.231Z" fill="#FFD200"/>
<path fill-rule="evenodd" clip-rule="evenodd" d="M331.61 183.631L326.313 183.993L325.75 180.806L329.485 178.348L331.61 183.631Z" fill="#23BBB8"/>
<path fill-rule="evenodd" clip-rule="evenodd" d="M283.835 194.529L278.539 194.893L281.711 189.25L283.835 194.529Z" fill="#23BBB8"/>
<path fill-rule="evenodd" clip-rule="evenodd" d="M277.964 169.205L272.665 169.568L272.105 166.378L275.837 163.922L277.964 169.205Z" fill="#23BBB8"/>
<path fill-rule="evenodd" clip-rule="evenodd" d="M252.986 139.372L247.687 139.732L247.125 136.546L250.861 134.089L252.986 139.372Z" fill="#23BBB8"/>
<path fill-rule="evenodd" clip-rule="evenodd" d="M160.674 101.609L155.378 101.972L154.816 98.7849L158.55 96.3287L160.674 101.609Z" fill="#23BBB8"/>
<path fill-rule="evenodd" clip-rule="evenodd" d="M182.54 52.2186L177.241 52.5811L176.68 49.3943L180.412 46.9375L182.54 52.2186Z" fill="#23BBB8"/>
<path fill-rule="evenodd" clip-rule="evenodd" d="M299.3 177.082L299.57 180.363L295.597 178.53L295.34 174.152L299.3 177.082Z" fill="#F52D56"/>
<path fill-rule="evenodd" clip-rule="evenodd" d="M298.241 160.616L295.152 162.243L295.252 158.13L299.413 156.048L298.241 160.616Z" fill="#F52D56"/>
<path fill-rule="evenodd" clip-rule="evenodd" d="M194.695 68.2636L191.605 69.8893L191.705 65.7769L195.865 63.6948L194.695 68.2636Z" fill="#F52D56"/>
<path fill-rule="evenodd" clip-rule="evenodd" d="M290.551 133.541L285.264 135.269L283.75 129.917L290.141 127.894L290.551 133.541Z" fill="#FFD200"/>
<path fill-rule="evenodd" clip-rule="evenodd" d="M262.981 190.794L257.692 192.524L256.184 187.171L262.569 185.148L262.981 190.794Z" fill="#FFD200"/>
<path fill-rule="evenodd" clip-rule="evenodd" d="M193.816 26.9909L197.345 24.1289L200.19 29.1815L194.85 33.607L193.816 26.9909Z" fill="#F52D56"/>
<path fill-rule="evenodd" clip-rule="evenodd" d="M264.79 208.495L254.127 209.223L252.996 202.811L260.508 197.868L264.79 208.495Z" fill="#007AFF"/>
<path fill-rule="evenodd" clip-rule="evenodd" d="M315.957 140.898L315.705 147.042L308.48 143.518L308.798 135.368L315.957 140.898Z" fill="#F52D56"/>
<path fill-rule="evenodd" clip-rule="evenodd" d="M146.38 203.876L141.989 204.174L141.523 201.534L144.62 199.498L146.38 203.876Z" fill="#23BBB8"/>
<path fill-rule="evenodd" clip-rule="evenodd" d="M121.348 210.205L116.959 210.503L116.492 207.864L119.587 205.827L121.348 210.205Z" fill="#23BBB8"/>
<path fill-rule="evenodd" clip-rule="evenodd" d="M93.0215 202.113L88.6375 203.546L87.3867 199.111L92.6804 197.432L93.0215 202.113Z" fill="#FFD200"/>
<path fill-rule="evenodd" clip-rule="evenodd" d="M177.502 199.045L173.12 200.477L171.867 196.042L177.161 194.366L177.502 199.045Z" fill="#FFD200"/>
<path fill-rule="evenodd" clip-rule="evenodd" d="M137.633 181.547C137.633 181.547 138.481 182.477 137.58 184.77C136.673 187.076 132.567 200.499 136.493 202.333C136.493 202.333 132.477 204.15 128.97 199.711C125.362 195.142 130.265 182.129 134.185 179.587L137.633 181.547Z" fill="#4252FF"/>
<path fill-rule="evenodd" clip-rule="evenodd" d="M117.1 172.322C116.075 174.776 111.456 189.139 116.015 191.291C116.015 191.291 111.387 193.092 107.278 188.128C103.041 183.011 107.037 172.177 111.157 165.986L117.1 172.322Z" fill="#4252FF"/>
<path fill-rule="evenodd" clip-rule="evenodd" d="M137.633 181.547L130.82 177.441C130.82 177.441 119.084 195.391 108.914 189.715C108.914 189.715 119.723 198.459 128.491 190.816C136.81 183.56 137.633 181.547 137.633 181.547" fill="#A1A9FF"/>
<path fill-rule="evenodd" clip-rule="evenodd" d="M127.789 197.252C127.789 197.252 129.784 203.008 139.195 200.223C149.568 197.287 154.488 211.427 154.488 211.427L149.993 218.757C149.993 218.757 150.763 204.444 141.724 204.511C132.003 204.58 130.086 203.398 127.789 197.252" fill="#A1A9FF"/>
<path fill-rule="evenodd" clip-rule="evenodd" d="M233.01 172.187C233.01 172.187 232.418 173.074 233.468 174.881C234.524 176.699 239.685 187.429 236.629 189.466C236.629 189.466 240.229 190.478 242.6 186.311C245.038 182.022 239.261 171.737 235.65 170.105L233.01 172.187Z" fill="#FFCC00"/>
<path fill-rule="evenodd" clip-rule="evenodd" d="M249.043 161.839C250.217 163.767 255.93 175.219 252.383 177.603C252.383 177.603 256.493 178.524 259.303 173.84C262.198 169.011 257.461 160.437 253.214 155.772L249.043 161.839Z" fill="#FFCC00"/>
<path fill-rule="evenodd" clip-rule="evenodd" d="M233.012 172.187L238.197 167.877C238.197 167.877 250.335 181.43 258.133 175.379C258.133 175.379 250.192 184.084 241.863 178.793C233.959 173.769 233.012 172.187 233.012 172.187" fill="#E89A24"/>
<path fill-rule="evenodd" clip-rule="evenodd" d="M243.278 184.099C243.278 184.099 242.342 189.178 234.097 188.041C225.026 186.9 222.711 199.378 222.711 199.378L227.419 204.953C227.419 204.953 224.941 193.051 232.525 191.957C240.685 190.778 242.139 189.543 243.278 184.099" fill="#E89A24"/>
<path fill-rule="evenodd" clip-rule="evenodd" d="M267.926 98.2514L263.302 97.288L265.347 101.533L263 105.618L267.682 104.99L271.342 95L267.926 98.2514Z" fill="#FF9500"/>
<path fill-rule="evenodd" clip-rule="evenodd" d="M107.926 18.1918L103.302 17.2285L105.347 21.4731L103 25.5586L107.682 24.9304L111.342 14.9404L107.926 18.1918Z" fill="#FF9500"/>
<path fill-rule="evenodd" clip-rule="evenodd" d="M272.021 103.846L276.33 101.915L272.171 99.6809L271.66 95L268 104.99L271.173 108.477L272.021 103.846Z" fill="#FFCC00"/>
<path fill-rule="evenodd" clip-rule="evenodd" d="M112.021 23.7861L116.33 21.8557L112.171 19.6213L111.66 14.9404L108 24.9304L111.173 28.4176L112.021 23.7861Z" fill="#FFCC00"/>
<path fill-rule="evenodd" clip-rule="evenodd" d="M256.563 42.123L253.218 41.4358L254.698 44.4637L253 47.3781L256.387 46.93L259.035 39.8036L256.563 42.123Z" fill="#FF9500"/>
<path fill-rule="evenodd" clip-rule="evenodd" d="M259.526 46.1137L262.643 44.7366L259.634 43.1427L259.265 39.8036L256.617 46.93L258.913 49.4176L259.526 46.1137Z" fill="#FFCC00"/>
<path fill-rule="evenodd" clip-rule="evenodd" d="M83.5634 143.123L80.2185 142.436L81.6979 145.464L80 148.378L83.3874 147.93L86.0348 140.804L83.5634 143.123Z" fill="#FF9500"/>
<path fill-rule="evenodd" clip-rule="evenodd" d="M86.526 147.114L89.6432 145.737L86.6344 144.143L86.2646 140.804L83.6172 147.93L85.913 150.418L86.526 147.114Z" fill="#FFCC00"/>
<path fill-rule="evenodd" clip-rule="evenodd" d="M139 209L192 198.5L246 207.638L202 218.5L139 209Z" fill="#86172E"/>
<path fill-rule="evenodd" clip-rule="evenodd" d="M192 198.5L192.433 264.659L241.14 273L247 207L192 198.5Z" fill="#B6203F"/>
<path fill-rule="evenodd" clip-rule="evenodd" d="M202 287L146.387 274.189L139 209L202 218.149V287Z" fill="#F52D56"/>
<path fill-rule="evenodd" clip-rule="evenodd" d="M202 218.145L247 207L241.5 273L202 287V218.145Z" fill="#FF7491"/>
<path fill-rule="evenodd" clip-rule="evenodd" d="M216.5 282L226.48 278.416L234 210L224.227 212.502L216.5 282Z" fill="#EBB02A"/>
<path fill-rule="evenodd" clip-rule="evenodd" d="M164.128 278.715L157 212L169.042 213.768L174 281L164.128 278.715Z" fill="#EBB02A"/>
<path fill-rule="evenodd" clip-rule="evenodd" d="M246 127L204 143L205 157L246 142V127Z" fill="#FF7491"/>
<path fill-rule="evenodd" clip-rule="evenodd" d="M246 127L202.523 123.98L187.977 123L133 140L204 143L246 127Z" fill="#FF8DA5"/>
<path fill-rule="evenodd" clip-rule="evenodd" d="M136 153L205 157L204 143L133 140L136 153Z" fill="#F52D56"/>
<path fill-rule="evenodd" clip-rule="evenodd" d="M151.5 141L166 141.5L168.5 155L154.5 154L151.5 141Z" fill="#EBB02A"/>
<path fill-rule="evenodd" clip-rule="evenodd" d="M151.5 141L201.965 124L214 124.826L166 141.5L151.5 141Z" fill="#F2BB4E"/>
<path fill-rule="evenodd" clip-rule="evenodd" d="M224 135.5V150L234 146.5V131.5L224 135.5Z" fill="#EBB02A"/>
<path fill-rule="evenodd" clip-rule="evenodd" d="M234 131.5L170 128.5L159 132L224 135.5L234 131.5Z" fill="#F2BB4E"/>
<path fill-rule="evenodd" clip-rule="evenodd" d="M149.008 111.456C149.008 111.456 165.306 130.1 184.996 130.762C189.567 130.284 191.641 128.957 191.641 128.957L163.23 110.778C164.621 104.746 167.721 99.2276 172.169 94.8666C174.028 93.043 172.018 90.0148 169.58 90.9669L161.439 94.147L153.088 102.178L149.008 111.456Z" fill="#E89A24"/>
<path fill-rule="evenodd" clip-rule="evenodd" d="M189.567 130.284L173.569 101.925C173.24 101.339 172.654 100.943 171.982 100.846C169.954 100.554 165.31 100.27 159.752 102.447C152.258 105.382 149.008 111.456 149.008 111.456L153.088 102.178C154.247 99.5417 155.935 97.1648 158.051 95.1898C161.977 91.525 166.907 89.0761 172.23 88.1464L177.02 87.3099C179.01 86.9625 180.956 88.1173 181.577 90.0148L193.853 127.542L189.567 130.284Z" fill="#F2BB4E"/>
<path fill-rule="evenodd" clip-rule="evenodd" d="M229.55 103.018C229.55 103.018 217.586 124.623 198.476 129.35C193.905 129.829 191.594 128.962 191.594 128.962L215.5 105.301C212.856 99.6923 208.649 94.9392 203.372 91.5975C201.165 90.1999 202.486 86.8226 205.072 87.2487L213.709 88.6704L223.584 94.7915L229.55 103.018Z" fill="#E89A24"/>
<path fill-rule="evenodd" clip-rule="evenodd" d="M193.904 129.829L203.504 98.7876C203.702 98.1478 204.191 97.6388 204.826 97.4051C206.746 96.6994 211.226 95.4586 217.125 96.4355C225.076 97.7526 229.548 103.018 229.548 103.018L223.582 94.791C221.888 92.4541 219.731 90.4803 217.241 88.9877C212.623 86.2181 207.281 84.8459 201.878 85.0396L197.017 85.2151C194.997 85.2878 193.342 86.8191 193.139 88.8031L189.129 128.038L193.904 129.829Z" fill="#F2BB4E"/>
</svg>
