<svg width="20" height="20" viewBox="0 0 20 20" fill="none" xmlns="http://www.w3.org/2000/svg">
<path d="M6.89389 15.3688H6.48829C3.24349 15.3688 1.62109 14.5599 1.62109 10.5155V6.47101C1.62109 3.23545 3.24349 1.61768 6.48829 1.61768H12.9779C16.2227 1.61768 17.8451 3.23545 17.8451 6.47101V10.5155C17.8451 13.751 16.2227 15.3688 12.9779 15.3688H12.5723C12.3208 15.3688 12.0775 15.4901 11.9233 15.6923L10.7065 17.3101C10.1711 18.0219 9.29504 18.0219 8.75965 17.3101L7.54285 15.6923C7.41306 15.5144 7.11292 15.3688 6.89389 15.3688Z" stroke="white" stroke-width="1.456" stroke-miterlimit="10" stroke-linecap="round" stroke-linejoin="round"/>
<path d="M12.9754 8.89785H12.9826" stroke="white" stroke-width="1.94133" stroke-linecap="round" stroke-linejoin="round"/>
<path d="M9.72927 8.89785H9.73656" stroke="white" stroke-width="1.94133" stroke-linecap="round" stroke-linejoin="round"/>
<path d="M6.48708 8.89785H6.49437" stroke="white" stroke-width="1.94133" stroke-linecap="round" stroke-linejoin="round"/>
</svg>
