<svg width="20" height="20" viewBox="0 0 20 20" fill="none" xmlns="http://www.w3.org/2000/svg">
<path d="M19.375 9.99999C19.3749 12.2074 18.5959 14.344 17.1751 16.0335C15.7543 17.7229 13.783 18.8569 11.6083 19.2356C9.43356 19.6142 7.19497 19.2134 5.28678 18.1036C3.37859 16.9938 1.9232 15.2463 1.17696 13.1688C0.430709 11.0914 0.441471 8.81719 1.20734 6.74687C1.97322 4.67655 3.44508 2.94288 5.36368 1.85121C7.28229 0.759537 9.52458 0.379894 11.6956 0.779143C13.8666 1.17839 15.8272 2.33092 17.2319 4.03374C17.3259 4.14769 17.3966 4.27904 17.4399 4.4203C17.4832 4.56157 17.4983 4.70997 17.4842 4.85705C17.4701 5.00413 17.4273 5.147 17.358 5.27751C17.2887 5.40801 17.1944 5.52359 17.0805 5.61765C16.9665 5.71171 16.8352 5.7824 16.6939 5.8257C16.5526 5.869 16.4042 5.88404 16.2572 5.86999C16.1101 5.85593 15.9672 5.81303 15.8367 5.74376C15.7062 5.67449 15.5906 5.58019 15.4966 5.46624C14.4598 4.20948 13.0237 3.34596 11.4276 3.0196C9.83142 2.69324 8.17162 2.92375 6.7248 3.67271C5.27798 4.42168 4.13153 5.64385 3.47651 7.13556C2.8215 8.62727 2.69748 10.2984 3.12513 11.8705C3.55279 13.4425 4.50628 14.8205 5.8267 15.7748C7.14712 16.7292 8.75471 17.2022 10.3816 17.115C12.0084 17.0278 13.5562 16.3857 14.7671 15.2957C15.978 14.2058 16.7787 12.7337 17.0359 11.125H10C9.70163 11.125 9.41548 11.0065 9.2045 10.7955C8.99353 10.5845 8.875 10.2984 8.875 9.99999C8.875 9.70163 8.99353 9.41548 9.2045 9.2045C9.41548 8.99352 9.70163 8.87499 10 8.87499H18.25C18.5484 8.87499 18.8345 8.99352 19.0455 9.2045C19.2565 9.41548 19.375 9.70163 19.375 9.99999Z" fill="#CECECE"/>
</svg>
