<svg width="22" height="22" viewBox="0 0 22 22" fill="none" xmlns="http://www.w3.org/2000/svg">
<path d="M17.3612 4.96828L12.6221 2.22745C11.7146 1.70495 10.2937 1.70495 9.38625 2.22745L4.60125 4.98661C2.70375 6.26995 2.59375 6.46245 2.59375 8.50661V13.4841C2.59375 15.5283 2.70375 15.7299 4.63792 17.0316L9.37708 19.7724C9.83542 20.0383 10.4221 20.1666 10.9996 20.1666C11.5771 20.1666 12.1637 20.0383 12.6129 19.7724L17.3979 17.0133C19.2954 15.7299 19.4054 15.5374 19.4054 13.4933V8.50661C19.4054 6.46245 19.2954 6.26995 17.3612 4.96828ZM10.9996 13.9791C9.35875 13.9791 8.02042 12.6408 8.02042 10.9999C8.02042 9.35911 9.35875 8.02078 10.9996 8.02078C12.6404 8.02078 13.9787 9.35911 13.9787 10.9999C13.9787 12.6408 12.6404 13.9791 10.9996 13.9791Z" fill="url(#paint0_linear_850_880)"/>
<defs>
<linearGradient id="paint0_linear_850_880" x1="10.9996" y1="1.83557" x2="10.9996" y2="20.1666" gradientUnits="userSpaceOnUse">
<stop stop-color="#FF8C21"/>
<stop offset="1" stop-color="#F5576E"/>
</linearGradient>
</defs>
</svg>
